<svg xmlns="http://www.w3.org/2000/svg" xmlns:xlink="http://www.w3.org/1999/xlink" width="32" height="26" viewBox="0 0 32 26"><defs><path id="ouh4a" d="M428 1561.075a13.147 13.147 0 0 1-3.772 1.036 6.591 6.591 0 0 0 2.887-3.634 13.204 13.204 0 0 1-4.168 1.594 6.566 6.566 0 0 0-11.357 4.492c0 .512.057 1.016.17 1.497a18.65 18.65 0 0 1-13.532-6.86 6.529 6.529 0 0 0-.89 3.3 6.56 6.56 0 0 0 2.922 5.464 6.518 6.518 0 0 1-2.974-.822v.084a6.57 6.57 0 0 0 5.266 6.437 6.573 6.573 0 0 1-2.965.111 6.566 6.566 0 0 0 6.133 4.56 13.172 13.172 0 0 1-9.72 2.718 18.578 18.578 0 0 0 10.063 2.951c12.077 0 18.68-10.004 18.68-18.68 0-.283-.007-.568-.018-.85a13.342 13.342 0 0 0 3.275-3.398z"/></defs><g><g transform="translate(-396 -1558)"><use fill="#fff" xlink:href="#ouh4a"/></g></g></svg>