<svg xmlns="http://www.w3.org/2000/svg" xmlns:xlink="http://www.w3.org/1999/xlink" width="100" height="100" viewBox="0 0 100 100"><defs><path id="3b1ba" d="M1173.005 896.002c27.617 0 50.006 22.385 50.006 50 0 27.614-22.389 50-50.006 50s-50.005-22.386-50.005-50c0-27.615 22.388-50 50.005-50z"/><path id="3b1bb" d="M1203.97 956.3c0 5.667-4.39 10.298-9.953 10.706v.04h-39.884v-.015c-6.45-.154-11.633-5.42-11.633-11.907 0-5.302 3.463-9.79 8.249-11.34-.002-.083-.013-.164-.013-.248 0-6.247 5.065-11.311 11.312-11.311 2.387 0 4.6.744 6.425 2.007 2.126-5.126 7.177-8.732 13.072-8.732 7.815 0 14.15 6.335 14.15 14.149 0 2.134-.477 4.155-1.324 5.968 5.395.573 9.599 5.136 9.599 10.683z"/><path id="3b1bc" d="M1162.048 932.225c6.247 0 11.311 5.064 11.311 11.311s-5.064 11.312-11.311 11.312c-6.248 0-11.312-5.065-11.312-11.312 0-6.247 5.064-11.311 11.312-11.311z"/><path id="3b1bd" d="M1123 996v-49.92c.042 27.446 22.2 49.706 49.607 49.92zm0-100h100v48.958c-.556-27.133-22.726-48.956-49.995-48.956-27.59 0-49.963 22.343-50.005 49.921zm100 100h-49.597c27.086-.211 49.044-21.954 49.597-48.955zm-100-49.998v.078-.157.079zm50.005 50l.398-.002h-.796l.398.002zm50.006-50c0-.35-.004-.697-.011-1.044v2.087c.007-.347.01-.695.01-1.043z"/><filter id="3b1be" width="200%" height="200%" x="-50%" y="-50%"><feGaussianBlur in="SourceGraphic" result="FeGaussianBlur1076Out" stdDeviation="0 0"/></filter><mask id="3b1bf"><use fill="#fff" xlink:href="#3b1ba"/></mask><mask id="3b1bi" width="2" height="2" x="-1" y="-1"><path fill="#fff" d="M1142 925h62v42h-62z"/><use xlink:href="#3b1bb"/></mask><filter id="3b1bh" width="85" height="62" x="1132" y="915" filterUnits="userSpaceOnUse"><feOffset dx="3" in="SourceGraphic" result="FeOffset1093Out"/><feGaussianBlur in="FeOffset1093Out" result="FeGaussianBlur1094Out" stdDeviation="0 0"/></filter><mask id="3b1bk" width="2" height="2" x="-1" y="-1"><path fill="#fff" d="M1150 932h24v23h-24z"/><use xlink:href="#3b1bc"/></mask><filter id="3b1bj" width="46" height="43" x="1140" y="922" filterUnits="userSpaceOnUse"><feOffset dx="2" in="SourceGraphic" result="FeOffset1109Out"/><feGaussianBlur in="FeOffset1109Out" result="FeGaussianBlur1110Out" stdDeviation="0 0"/></filter><clipPath id="3b1bg"><use xlink:href="#3b1ba"/></clipPath></defs><g><g transform="translate(-1123 -896)"><use fill-opacity=".15" stroke="#000" stroke-opacity=".15" stroke-width="0" filter="url(#3b1be)" mask="url(&quot;#3b1bf&quot;)" xlink:href="#3b1bd"/><use fill="#e74c3c" xlink:href="#3b1ba"/><use fill-opacity=".15" stroke="#000" stroke-opacity=".15" stroke-width="0" filter="url(#3b1be)" mask="url(&quot;#3b1bf&quot;)" xlink:href="#3b1bd"/></g><g clip-path="url(#3b1bg)" transform="translate(-1123 -896)"><g filter="url(#3b1bh)"><use fill="none" stroke-opacity=".4" stroke-width="0" mask="url(&quot;#3b1bi&quot;)" xlink:href="#3b1bb"/><use fill="#232324" fill-opacity=".4" xlink:href="#3b1bb"/></g><use fill="#fff" xlink:href="#3b1bb"/></g><g clip-path="url(#3b1bg)" transform="translate(-1123 -896)"><g filter="url(#3b1bj)"><use fill="none" stroke-opacity=".1" stroke-width="0" mask="url(&quot;#3b1bk&quot;)" xlink:href="#3b1bc"/><use fill="#96b9f6" fill-opacity=".1" xlink:href="#3b1bc"/></g><use fill="#fff" xlink:href="#3b1bc"/></g></g></svg>