<svg xmlns="http://www.w3.org/2000/svg" xmlns:xlink="http://www.w3.org/1999/xlink" width="100" height="100" viewBox="0 0 100 100"><defs><path id="4rhea" d="M526.005 896.002c27.617 0 50.006 22.385 50.006 50 0 27.614-22.389 50-50.006 50S476 973.616 476 946.002c0-27.615 22.388-50 50.005-50z"/><path id="4rheb" d="M476 996v-49.927c.038 27.449 22.197 49.713 49.607 49.927zm0-100h100v48.957c-.556-27.132-22.727-48.955-49.995-48.955-27.593 0-49.966 22.347-50.005 49.928zm100 100h-49.597c27.086-.211 49.044-21.954 49.597-48.954zm-100-49.998v.071-.143.072zm50.005 50l.398-.002h-.796l.398.002zm50.006-50c0-.35-.004-.697-.011-1.045v2.089c.007-.347.01-.695.01-1.044z"/><path id="4rhee" d="M531.354 946.073c10.414 12.956 16.664 11.928 18.646 11.928 2.127 0 10-2.554 10-12 0-9.447-8.09-12-11-12-2.678 0-8.853 1.628-17.646 12.072-.763-.95-.765.91 0 0zm-4.854-6.336C536.96 926.704 544.143 926 549 926c7.488 0 19 6.799 19 20 0 14.893-13.061 21-19 21-5.482 0-12.708-3.051-22.5-14.867.816-.984.814-11.382 0-12.396zm0 12.396C516.708 963.949 509.482 967 504 967c-5.939 0-19-6.107-19-21 0-13.201 11.512-20 19-20 4.857 0 12.04.704 22.5 13.737-.814 1.014-.816 11.412 0 12.396zm-4.854-6.06c-8.793-10.444-14.968-12.072-17.646-12.072-2.91 0-11 2.553-11 12 0 9.446 7.873 12 10 12 1.982 0 8.232 1.028 18.646-11.928.765.91.763-.95 0 0z"/><filter id="4rhec" width="200%" height="200%" x="-50%" y="-50%"><feGaussianBlur in="SourceGraphic" result="FeGaussianBlur1018Out" stdDeviation="0 0"/></filter><mask id="4rhed"><use fill="#fff" xlink:href="#4rhea"/></mask></defs><g><g transform="translate(-476 -896)"><use fill-opacity=".15" stroke="#000" stroke-opacity=".15" stroke-width="0" filter="url(#4rhec)" mask="url(&quot;#4rhed&quot;)" xlink:href="#4rheb"/><use fill="#e74c3c" xlink:href="#4rhea"/><use fill-opacity=".15" stroke="#000" stroke-opacity=".15" stroke-width="0" filter="url(#4rhec)" mask="url(&quot;#4rhed&quot;)" xlink:href="#4rheb"/></g><g transform="translate(-476 -896)"><use fill="#fff" xlink:href="#4rhee"/></g></g></svg>