<svg xmlns="http://www.w3.org/2000/svg" xmlns:xlink="http://www.w3.org/1999/xlink" width="100" height="100" viewBox="0 0 100 100"><defs><path id="h99pa" d="M850.005 896.002c27.617 0 50.006 22.385 50.006 50 0 27.614-22.389 50-50.006 50S800 973.616 800 946.002c0-27.615 22.388-50 50.005-50z"/><path id="h99pb" d="M873.401 948.552c2.936 2.883 4.55 6.712 4.55 10.784 0 3.984-1.556 7.704-4.382 10.476-2.761 2.71-6.433 4.201-10.337 4.201-3.995 0-7.776-1.551-10.647-4.367-1.004-.984-1.857-2.229-2.585-3.605-.729 1.376-1.582 2.62-2.586 3.606-2.87 2.815-6.65 4.366-10.646 4.366-3.904 0-7.575-1.491-10.337-4.2-2.826-2.773-4.382-6.494-4.383-10.478 0-4.073 1.616-7.902 4.55-10.782.944-.925 2.127-1.717 3.438-2.401-1.42-.729-2.592-1.552-3.55-2.52-5.883-5.944-5.958-15.48-.169-21.329 2.774-2.802 6.478-4.316 10.43-4.316 4.042 0 7.856 1.618 10.738 4.53.95.96 1.778 2.133 2.518 3.553.738-1.414 1.564-2.582 2.51-3.538 2.885-2.913 6.698-4.516 10.741-4.516 3.951 0 7.655 1.543 10.43 4.345 5.787 5.848 5.712 15.442-.169 21.385-.925.934-2.045 1.753-3.399 2.485 1.25.666 2.38 1.432 3.285 2.321zm-41.264-10.858c2.926 2.875 13.844 4.326 13.867 4.305.022-.023-1.203-11.002-4.128-13.878-2.785-2.737-7.223-2.813-9.912-.17-2.689 2.643-2.612 7.004.173 9.743zm13.873 12.318c-.022-.02-10.963 1.235-13.86 3.955-2.76 2.59-2.836 6.716-.172 9.216 2.664 2.5 7.06 2.429 9.818-.161 2.899-2.72 4.236-12.99 4.214-13.01zm21.869 3.955c-2.905-2.72-13.867-3.975-13.89-3.955-.022.02 1.319 10.29 4.223 13.01 2.764 2.59 7.169 2.66 9.838.16 2.67-2.499 2.592-6.625-.171-9.215zm.172-26c-2.668-2.665-7.07-2.588-9.834.17-2.903 2.899-4.243 13.84-4.22 13.861.022.023 10.98-1.315 13.883-4.213 2.762-2.759 2.84-7.155.171-9.819z"/><path id="h99pc" d="M800 996v-49.927c.038 27.449 22.197 49.713 49.607 49.927zm0-100h100v48.957c-.556-27.132-22.727-48.955-49.995-48.955-27.593 0-49.966 22.347-50.005 49.928zm100 100h-49.597c27.086-.211 49.044-21.954 49.597-48.954zm-100-49.998v.071-.143.072zm50.005 50l.398-.002h-.796l.398.002zm50.006-50c0-.35-.004-.697-.011-1.045v2.089c.007-.347.01-.695.01-1.044z"/><path id="h99pi" d="M900 950h-46v53h-8v-53h-46v-8h46v-39s.036-15.759.036-9.75c0 1.782 7.967 1.642 7.967 1.804 0 6.082-.003 7.946-.003 7.946v39h46z"/><filter id="h99pd" width="200%" height="200%" x="-50%" y="-50%"><feGaussianBlur in="SourceGraphic" result="FeGaussianBlur1039Out" stdDeviation="0 0"/></filter><mask id="h99pe"><use fill="#fff" xlink:href="#h99pa"/></mask><mask id="h99ph" width="2" height="2" x="-1" y="-1"><path fill="#fff" d="M822 918h56v56h-56z"/><use xlink:href="#h99pb"/></mask><filter id="h99pg" width="76" height="80" x="812" y="908" filterUnits="userSpaceOnUse"><feOffset dy="4" in="SourceGraphic" result="FeOffset1056Out"/><feGaussianBlur in="FeOffset1056Out" result="FeGaussianBlur1057Out" stdDeviation="0 0"/></filter><clipPath id="h99pf"><use xlink:href="#h99pa"/></clipPath></defs><g><g transform="translate(-800 -896)"><use fill-opacity=".15" stroke="#000" stroke-opacity=".15" stroke-width="0" filter="url(#h99pd)" mask="url(&quot;#h99pe&quot;)" xlink:href="#h99pc"/><use fill="#e74c3c" xlink:href="#h99pa"/><use fill-opacity=".15" stroke="#000" stroke-opacity=".15" stroke-width="0" filter="url(#h99pd)" mask="url(&quot;#h99pe&quot;)" xlink:href="#h99pc"/></g><g clip-path="url(#h99pf)" transform="translate(-800 -896)"><g filter="url(#h99pg)"><use fill="none" stroke-opacity=".15" stroke-width="0" mask="url(&quot;#h99ph&quot;)" xlink:href="#h99pb"/><use fill-opacity=".15" xlink:href="#h99pb"/></g><use fill="#fff" xlink:href="#h99pb"/></g><g clip-path="url(#h99pf)" transform="translate(-800 -896)"><use fill="#fff" xlink:href="#h99pi"/></g></g></svg>