<svg xmlns="http://www.w3.org/2000/svg" xmlns:xlink="http://www.w3.org/1999/xlink" width="30" height="31" viewBox="0 0 30 31"><defs><path id="tn4qa" d="M865 2187.994v2.963c0 .874-.637 1.594-1.47 1.733l.001.005-3.017.614s0 .002-.002.003a.564.564 0 0 0-.543.562c0 .146.06.278.15.379 0 .004-.004.006-.006.01l1.703 2.495-.002.001a1.76 1.76 0 0 1-.187 2.266l-2.094 2.096a1.759 1.759 0 0 1-2.265.186l-.004.003-2.547-1.687-.012.006a.551.551 0 0 0-.309-.104.557.557 0 0 0-.543.456l-.013.005-.62 3.044h-.003a1.761 1.761 0 0 1-1.735 1.47h-2.963a1.76 1.76 0 0 1-1.734-1.471l-.004.001-.57-3.026-.008-.002a.563.563 0 0 0-.559-.526.558.558 0 0 0-.367.144l-.017-.009-2.594 1.716-.002-.003a1.76 1.76 0 0 1-2.266-.186l-2.095-2.095a1.757 1.757 0 0 1-.186-2.267h-.004l1.75-2.563-.008-.014a.55.55 0 0 0 .12-.33.558.558 0 0 0-.485-.55l-.002-.01-3.017-.614v-.005a1.759 1.759 0 0 1-1.471-1.733v-2.963c0-.874.639-1.595 1.473-1.734l-.002-.004 3-.565c0-.004.002-.008.003-.01a.56.56 0 0 0 .506-.555.558.558 0 0 0-.132-.356l-1.717-2.594.004-.002a1.757 1.757 0 0 1 .185-2.267l2.094-2.095a1.76 1.76 0 0 1 2.268-.185l.002-.004 2.539 1.734a.095.095 0 0 1 .013-.007.566.566 0 0 0 .969-.396l-.002-.005.018-.006.56-2.973.004.001a1.76 1.76 0 0 1 1.734-1.471h2.963c.874 0 1.594.637 1.735 1.47h.004l.607 2.99.016.006a.56.56 0 0 0 .552.502c.133 0 .25-.053.346-.13l.012.006 2.494-1.704.002.004a1.76 1.76 0 0 1 2.266.185l2.095 2.096c.617.618.676 1.577.186 2.266l.004.002-1.672 2.525.008.012a.562.562 0 0 0 .392.951l.002.01 3 .565-.002.004c.834.14 1.47.86 1.47 1.734zm-15 5.008a3.527 3.527 0 1 0 0-7.055 3.527 3.527 0 0 0 0 7.055z"/></defs><g><g transform="translate(-835 -2174)"><use fill="#eb4f4e" xlink:href="#tn4qa"/></g></g></svg>