<svg xmlns="http://www.w3.org/2000/svg" xmlns:xlink="http://www.w3.org/1999/xlink" width="47" height="36" viewBox="0 0 47 36"><defs><path id="p10da" d="M379.969 60.968a1 1 0 0 1-1 1h-3a1 1 0 0 1-1-1v-5.374a1 1 0 0 1 1-1h3a1 1 0 0 1 1 1zm7 0a1 1 0 0 1-1 1h-3a1 1 0 0 1-1-1v-16a1 1 0 0 1 1-1h3a1 1 0 0 1 1 1zm7 0a1 1 0 0 1-1 1h-3a1 1 0 0 1-1-1v-34a1 1 0 0 1 1-1h3a1 1 0 0 1 1 1zm7 0a1 1 0 0 1-1 1h-3a1 1 0 0 1-1-1V33.344a1 1 0 0 1 1-1h3a1 1 0 0 1 1 1zm7 0a1 1 0 0 1-1 1h-3a1 1 0 0 1-1-1V42.094a1 1 0 0 1 1-1h3a1 1 0 0 1 1 1zm7 0a1 1 0 0 1-1 1h-3a1 1 0 0 1-1-1v-16.5a1 1 0 0 1 1-1h3a1 1 0 0 1 1 1zm7 0a1 1 0 0 1-1 1h-3a1 1 0 0 1-1-1V39.594a1 1 0 0 1 1-1h3a1 1 0 0 1 1 1z"/></defs><g><g transform="translate(-375 -26)"><use fill="#232324" xlink:href="#p10da"/></g></g></svg>